<svg width="576" height="381.333" viewBox="0 0 432 286" xmlns="http://www.w3.org/2000/svg" xmlns:xlink="http://www.w3.org/1999/xlink" stroke-linecap="butt" stroke-linejoin="round" overflow="hidden"><defs stroke-linecap="butt" stroke-linejoin="round"></defs><defs stroke-linecap="butt" stroke-linejoin="round"><clipPath id="p602e346e5c" stroke-linecap="butt" stroke-linejoin="round"><rect x="54" y="34.32" width="334.8" height="215.93" stroke-linecap="butt" stroke-linejoin="round"/></clipPath></defs><g id="figure_1" stroke-linecap="butt" stroke-linejoin="round"><g id="patch_1" stroke-linecap="butt" stroke-linejoin="round"><path d="M0 286 432 286 432 0 0 0Z" stroke-linecap="butt" stroke-linejoin="round" fill="#FFFFFF"/></g><g id="axes_1" stroke-linecap="butt" stroke-linejoin="round"><g id="patch_2" stroke-linecap="butt" stroke-linejoin="round"><path d="M54 250.25 388.8 250.25 388.8 34.32 54 34.32Z" stroke-linecap="butt" stroke-linejoin="round" fill="#FFFFFF"/></g><g id="matplotlib.axis_1" stroke-linecap="butt" stroke-linejoin="round"><g id="xtick_1" stroke-linecap="butt" stroke-linejoin="round"><g id="line2d_1" stroke-linecap="butt" stroke-linejoin="round"><path d="M69.2182 250.25 69.2182 34.32" stroke="#B0B0B0" stroke-width="0.8" stroke-linecap="square" stroke-linejoin="round" fill="none" clip-path="url(#p602e346e5c)"/></g><g id="line2d_2" stroke-linecap="butt" stroke-linejoin="round"><defs stroke-linecap="butt" stroke-linejoin="round"><path d="M0 0 0 3.5" id="m53049429c2" stroke="#000000" stroke-width="0.8" stroke-linecap="butt" stroke-linejoin="round"/></defs><g stroke-linecap="butt" stroke-linejoin="round"><use x="69.2182" y="250.25" width="100%" height="100%" xlink:href="#m53049429c2" stroke="#000000" stroke-width="0.8" stroke-linecap="butt" stroke-linejoin="round"></use></g></g><g id="text_1" stroke-linecap="butt" stroke-linejoin="round"><defs stroke-linecap="butt" stroke-linejoin="round"><path d="M31.7813 66.4063C26.7083 66.4063 22.8906 63.9063 20.3281 58.9063 17.776 53.9167 16.5 46.4063 16.5 36.375 16.5 26.3854 17.776 18.8906 20.3281 13.8906 22.8906 8.89063 26.7083 6.39063 31.7813 6.39063 36.8958 6.39063 40.7292 8.89063 43.2813 13.8906 45.8438 18.8906 47.125 26.3854 47.125 36.375 47.125 46.4063 45.8438 53.9167 43.2813 58.9063 40.7292 63.9063 36.8958 66.4063 31.7813 66.4063ZM31.7813 74.2188C39.9583 74.2188 46.2031 70.9844 50.5156 64.5156 54.8281 58.0573 56.9844 48.6771 56.9844 36.375 56.9844 24.1042 54.8281 14.7344 50.5156 8.26563 46.2031 1.80729 39.9583-1.42188 31.7813-1.42188 23.6146-1.42188 17.375 1.80729 13.0625 8.26563 8.75 14.7344 6.59375 24.1042 6.59375 36.375 6.59375 48.6771 8.75 58.0573 13.0625 64.5156 17.375 70.9844 23.6146 74.2188 31.7813 74.2188Z" id="DejaVuSans-48" stroke-linecap="butt" stroke-linejoin="round"/><path d="M10.6875 12.4063 21 12.4063 21 0 10.6875 0Z" id="DejaVuSans-46" stroke-linecap="butt" stroke-linejoin="round"/></defs><g stroke-linecap="butt" stroke-linejoin="round" transform="matrix(0.1 0 0 -0.1 61.2666 264.848)"><use width="100%" height="100%" xlink:href="#DejaVuSans-48" stroke-linecap="butt" stroke-linejoin="round"></use><use x="63.623" width="100%" height="100%" xlink:href="#DejaVuSans-46" stroke-linecap="butt" stroke-linejoin="round"></use><use x="95.4102" width="100%" height="100%" xlink:href="#DejaVuSans-48" stroke-linecap="butt" stroke-linejoin="round"></use></g></g></g><g id="xtick_2" stroke-linecap="butt" stroke-linejoin="round"><g id="line2d_3" stroke-linecap="butt" stroke-linejoin="round"><path d="M130.091 250.25 130.091 34.32" stroke="#B0B0B0" stroke-width="0.8" stroke-linecap="square" stroke-linejoin="round" fill="none" clip-path="url(#p602e346e5c)"/></g><g id="line2d_4" stroke-linecap="butt" stroke-linejoin="round"><g stroke-linecap="butt" stroke-linejoin="round"><use x="130.091" y="250.25" width="100%" height="100%" xlink:href="#m53049429c2" stroke="#000000" stroke-width="0.8" stroke-linecap="butt" stroke-linejoin="round"></use></g></g><g id="text_2" stroke-linecap="butt" stroke-linejoin="round"><defs stroke-linecap="butt" stroke-linejoin="round"><path d="M19.1875 8.29688 53.6094 8.29688 53.6094 0 7.32813 0 7.32813 8.29688C11.0677 12.1719 16.1667 17.3698 22.625 23.8906 29.0938 30.4219 33.1563 34.6354 34.8125 36.5313 37.9688 40.0729 40.1719 43.0729 41.4219 45.5313 42.6823 47.9896 43.3125 50.4063 43.3125 52.7813 43.3125 56.6563 41.9531 59.8125 39.2344 62.25 36.5156 64.6979 32.974 65.9219 28.6094 65.9219 25.5156 65.9219 22.25 65.3854 18.8125 64.3125 15.3854 63.2396 11.7188 61.6094 7.8125 59.4219L7.8125 69.3906C11.7813 70.9844 15.4896 72.1875 18.9375 73 22.3958 73.8125 25.5573 74.2188 28.4219 74.2188 35.974 74.2188 41.9948 72.3281 46.4844 68.5469 50.974 64.776 53.2188 59.7344 53.2188 53.4219 53.2188 50.4219 52.6563 47.5781 51.5313 44.8906 50.4167 42.2135 48.375 39.0521 45.4063 35.4063 44.5938 34.4583 42.0052 31.7292 37.6406 27.2188 33.2865 22.7083 27.1354 16.401 19.1875 8.29688Z" id="DejaVuSans-50" stroke-linecap="butt" stroke-linejoin="round"/></defs><g stroke-linecap="butt" stroke-linejoin="round" transform="matrix(0.1 0 0 -0.1 122.139 264.848)"><use width="100%" height="100%" xlink:href="#DejaVuSans-48" stroke-linecap="butt" stroke-linejoin="round"></use><use x="63.623" width="100%" height="100%" xlink:href="#DejaVuSans-46" stroke-linecap="butt" stroke-linejoin="round"></use><use x="95.4102" width="100%" height="100%" xlink:href="#DejaVuSans-50" stroke-linecap="butt" stroke-linejoin="round"></use></g></g></g><g id="xtick_3" stroke-linecap="butt" stroke-linejoin="round"><g id="line2d_5" stroke-linecap="butt" stroke-linejoin="round"><path d="M190.964 250.25 190.964 34.32" stroke="#B0B0B0" stroke-width="0.8" stroke-linecap="square" stroke-linejoin="round" fill="none" clip-path="url(#p602e346e5c)"/></g><g id="line2d_6" stroke-linecap="butt" stroke-linejoin="round"><g stroke-linecap="butt" stroke-linejoin="round"><use x="190.964" y="250.25" width="100%" height="100%" xlink:href="#m53049429c2" stroke="#000000" stroke-width="0.8" stroke-linecap="butt" stroke-linejoin="round"></use></g></g><g id="text_3" stroke-linecap="butt" stroke-linejoin="round"><defs stroke-linecap="butt" stroke-linejoin="round"><path d="M37.7969 64.3125 12.8906 25.3906 37.7969 25.3906ZM35.2031 72.9063 47.6094 72.9063 47.6094 25.3906 58.0156 25.3906 58.0156 17.1875 47.6094 17.1875 47.6094 0 37.7969 0 37.7969 17.1875 4.89063 17.1875 4.89063 26.7031Z" id="DejaVuSans-52" stroke-linecap="butt" stroke-linejoin="round"/></defs><g stroke-linecap="butt" stroke-linejoin="round" transform="matrix(0.1 0 0 -0.1 183.012 264.848)"><use width="100%" height="100%" xlink:href="#DejaVuSans-48" stroke-linecap="butt" stroke-linejoin="round"></use><use x="63.623" width="100%" height="100%" xlink:href="#DejaVuSans-46" stroke-linecap="butt" stroke-linejoin="round"></use><use x="95.4102" width="100%" height="100%" xlink:href="#DejaVuSans-52" stroke-linecap="butt" stroke-linejoin="round"></use></g></g></g><g id="xtick_4" stroke-linecap="butt" stroke-linejoin="round"><g id="line2d_7" stroke-linecap="butt" stroke-linejoin="round"><path d="M251.836 250.25 251.836 34.32" stroke="#B0B0B0" stroke-width="0.8" stroke-linecap="square" stroke-linejoin="round" fill="none" clip-path="url(#p602e346e5c)"/></g><g id="line2d_8" stroke-linecap="butt" stroke-linejoin="round"><g stroke-linecap="butt" stroke-linejoin="round"><use x="251.836" y="250.25" width="100%" height="100%" xlink:href="#m53049429c2" stroke="#000000" stroke-width="0.8" stroke-linecap="butt" stroke-linejoin="round"></use></g></g><g id="text_4" stroke-linecap="butt" stroke-linejoin="round"><defs stroke-linecap="butt" stroke-linejoin="round"><path d="M33.0156 40.375C28.5885 40.375 25.0781 38.8594 22.4844 35.8281 19.901 32.8073 18.6094 28.6615 18.6094 23.3906 18.6094 18.151 19.901 14.0052 22.4844 10.9531 25.0781 7.91146 28.5885 6.39063 33.0156 6.39063 37.4427 6.39063 40.9479 7.91146 43.5313 10.9531 46.1146 14.0052 47.4063 18.151 47.4063 23.3906 47.4063 28.6615 46.1146 32.8073 43.5313 35.8281 40.9479 38.8594 37.4427 40.375 33.0156 40.375ZM52.5938 71.2969 52.5938 62.3125C50.1146 63.4792 47.6146 64.3698 45.0938 64.9844 42.5729 65.6094 40.0729 65.9219 37.5938 65.9219 31.0833 65.9219 26.1094 63.724 22.6719 59.3281 19.2448 54.9323 17.2865 48.2917 16.7969 39.4063 18.7135 42.2396 21.1198 44.4115 24.0156 45.9219 26.9219 47.4323 30.1146 48.1875 33.5938 48.1875 40.9167 48.1875 46.7031 45.9635 50.9531 41.5156 55.2031 37.0781 57.3281 31.0365 57.3281 23.3906 57.3281 15.901 55.1146 9.89063 50.6875 5.35938 46.2604 0.838542 40.3698-1.42188 33.0156-1.42188 24.5781-1.42188 18.1302 1.80729 13.6719 8.26563 9.21354 14.7344 6.98438 24.1042 6.98438 36.375 6.98438 47.8958 9.71875 57.0833 15.1875 63.9375 20.6563 70.7917 27.9948 74.2188 37.2031 74.2188 39.6823 74.2188 42.1823 73.974 44.7031 73.4844 47.224 72.9948 49.8542 72.2656 52.5938 71.2969Z" id="DejaVuSans-54" stroke-linecap="butt" stroke-linejoin="round"/></defs><g stroke-linecap="butt" stroke-linejoin="round" transform="matrix(0.1 0 0 -0.1 243.885 264.848)"><use width="100%" height="100%" xlink:href="#DejaVuSans-48" stroke-linecap="butt" stroke-linejoin="round"></use><use x="63.623" width="100%" height="100%" xlink:href="#DejaVuSans-46" stroke-linecap="butt" stroke-linejoin="round"></use><use x="95.4102" width="100%" height="100%" xlink:href="#DejaVuSans-54" stroke-linecap="butt" stroke-linejoin="round"></use></g></g></g><g id="xtick_5" stroke-linecap="butt" stroke-linejoin="round"><g id="line2d_9" stroke-linecap="butt" stroke-linejoin="round"><path d="M312.709 250.25 312.709 34.32" stroke="#B0B0B0" stroke-width="0.8" stroke-linecap="square" stroke-linejoin="round" fill="none" clip-path="url(#p602e346e5c)"/></g><g id="line2d_10" stroke-linecap="butt" stroke-linejoin="round"><g stroke-linecap="butt" stroke-linejoin="round"><use x="312.709" y="250.25" width="100%" height="100%" xlink:href="#m53049429c2" stroke="#000000" stroke-width="0.8" stroke-linecap="butt" stroke-linejoin="round"></use></g></g><g id="text_5" stroke-linecap="butt" stroke-linejoin="round"><defs stroke-linecap="butt" stroke-linejoin="round"><path d="M31.7813 34.625C27.0938 34.625 23.4063 33.3698 20.7188 30.8594 18.0417 28.349 16.7031 24.901 16.7031 20.5156 16.7031 16.1198 18.0417 12.6667 20.7188 10.1563 23.4063 7.64583 27.0938 6.39063 31.7813 6.39063 36.4688 6.39063 40.1615 7.65104 42.8594 10.1719 45.5677 12.7031 46.9219 16.151 46.9219 20.5156 46.9219 24.901 45.5781 28.349 42.8906 30.8594 40.2135 33.3698 36.5104 34.625 31.7813 34.625ZM21.9219 38.8125C17.6927 39.8542 14.3958 41.8229 12.0313 44.7188 9.67708 47.625 8.5 51.1615 8.5 55.3281 8.5 61.151 10.5729 65.7552 14.7188 69.1406 18.875 72.526 24.5625 74.2188 31.7813 74.2188 39.0417 74.2188 44.7396 72.526 48.875 69.1406 53.0104 65.7552 55.0781 61.151 55.0781 55.3281 55.0781 51.1615 53.8958 47.625 51.5313 44.7188 49.1771 41.8229 45.901 39.8542 41.7031 38.8125 46.4531 37.7083 50.151 35.5417 52.7969 32.3125 55.4531 29.0938 56.7813 25.1615 56.7813 20.5156 56.7813 13.4427 54.625 8.01563 50.3125 4.23438 46 0.463542 39.8229-1.42188 31.7813-1.42188 23.75-1.42188 17.5729 0.463542 13.25 4.23438 8.9375 8.01563 6.78125 13.4427 6.78125 20.5156 6.78125 25.1615 8.11458 29.0938 10.7813 32.3125 13.4583 35.5417 17.1719 37.7083 21.9219 38.8125ZM18.3125 54.3906C18.3125 50.6198 19.4896 47.6771 21.8438 45.5625 24.2083 43.4479 27.5208 42.3906 31.7813 42.3906 36.0208 42.3906 39.3333 43.4479 41.7188 45.5625 44.1146 47.6771 45.3125 50.6198 45.3125 54.3906 45.3125 58.1719 44.1146 61.1198 41.7188 63.2344 39.3333 65.349 36.0208 66.4063 31.7813 66.4063 27.5208 66.4063 24.2083 65.349 21.8438 63.2344 19.4896 61.1198 18.3125 58.1719 18.3125 54.3906Z" id="DejaVuSans-56" stroke-linecap="butt" stroke-linejoin="round"/></defs><g stroke-linecap="butt" stroke-linejoin="round" transform="matrix(0.1 0 0 -0.1 304.758 264.848)"><use width="100%" height="100%" xlink:href="#DejaVuSans-48" stroke-linecap="butt" stroke-linejoin="round"></use><use x="63.623" width="100%" height="100%" xlink:href="#DejaVuSans-46" stroke-linecap="butt" stroke-linejoin="round"></use><use x="95.4102" width="100%" height="100%" xlink:href="#DejaVuSans-56" stroke-linecap="butt" stroke-linejoin="round"></use></g></g></g><g id="xtick_6" stroke-linecap="butt" stroke-linejoin="round"><g id="line2d_11" stroke-linecap="butt" stroke-linejoin="round"><path d="M373.582 250.25 373.582 34.32" stroke="#B0B0B0" stroke-width="0.8" stroke-linecap="square" stroke-linejoin="round" fill="none" clip-path="url(#p602e346e5c)"/></g><g id="line2d_12" stroke-linecap="butt" stroke-linejoin="round"><g stroke-linecap="butt" stroke-linejoin="round"><use x="373.582" y="250.25" width="100%" height="100%" xlink:href="#m53049429c2" stroke="#000000" stroke-width="0.8" stroke-linecap="butt" stroke-linejoin="round"></use></g></g><g id="text_6" stroke-linecap="butt" stroke-linejoin="round"><defs stroke-linecap="butt" stroke-linejoin="round"><path d="M12.4063 8.29688 28.5156 8.29688 28.5156 63.9219 10.9844 60.4063 10.9844 69.3906 28.4219 72.9063 38.2813 72.9063 38.2813 8.29688 54.3906 8.29688 54.3906 0 12.4063 0Z" id="DejaVuSans-49" stroke-linecap="butt" stroke-linejoin="round"/></defs><g stroke-linecap="butt" stroke-linejoin="round" transform="matrix(0.1 0 0 -0.1 365.63 264.848)"><use width="100%" height="100%" xlink:href="#DejaVuSans-49" stroke-linecap="butt" stroke-linejoin="round"></use><use x="63.623" width="100%" height="100%" xlink:href="#DejaVuSans-46" stroke-linecap="butt" stroke-linejoin="round"></use><use x="95.4102" width="100%" height="100%" xlink:href="#DejaVuSans-48" stroke-linecap="butt" stroke-linejoin="round"></use></g></g></g><g id="text_7" stroke-linecap="butt" stroke-linejoin="round"><defs stroke-linecap="butt" stroke-linejoin="round"><path d="M8.5 21.5781 8.5 54.6875 17.4844 54.6875 17.4844 21.9219C17.4844 16.7448 18.4896 12.8594 20.5 10.2656 22.5208 7.68229 25.5521 6.39063 29.5938 6.39063 34.4375 6.39063 38.2656 7.9375 41.0781 11.0313 43.901 14.125 45.3125 18.3438 45.3125 23.6875L45.3125 54.6875 54.2969 54.6875 54.2969 0 45.3125 0 45.3125 8.40625C43.1354 5.08333 40.6042 2.61458 37.7188 1 34.8438-0.614583 31.5-1.42188 27.6875-1.42188 21.4063-1.42188 16.6354 0.53125 13.375 4.4375 10.125 8.34375 8.5 14.0573 8.5 21.5781Z" id="DejaVuSans-117" stroke-linecap="butt" stroke-linejoin="round"/><path d="M44.2813 53.0781 44.2813 44.5781C41.75 45.8802 39.1146 46.8542 36.375 47.5 33.6458 48.1563 30.8125 48.4844 27.875 48.4844 23.4167 48.4844 20.0729 47.8021 17.8438 46.4375 15.6146 45.0729 14.5 43.0208 14.5 40.2813 14.5 38.1979 15.2969 36.5625 16.8906 35.375 18.4844 34.1875 21.6927 33.0573 26.5156 31.9844L29.5938 31.2969C35.9688 29.9323 40.5 28.0052 43.1875 25.5156 45.875 23.026 47.2188 19.5521 47.2188 15.0938 47.2188 10.0104 45.2083 5.98438 41.1875 3.01563 37.1667 0.0572917 31.6406-1.42188 24.6094-1.42188 21.6823-1.42188 18.6302-1.13542 15.4531-0.5625 12.276 0.0104167 8.93229 0.864583 5.42188 2L5.42188 11.2813C8.74479 9.55208 12.0156 8.25521 15.2344 7.39063 18.4531 6.53646 21.6458 6.10938 24.8125 6.10938 29.0417 6.10938 32.2917 6.83333 34.5625 8.28125 36.8438 9.72917 37.9844 11.7708 37.9844 14.4063 37.9844 16.8438 37.1615 18.7135 35.5156 20.0156 33.8802 21.3177 30.276 22.5729 24.7031 23.7813L21.5781 24.5156C16.0156 25.6823 11.9948 27.4792 9.51563 29.9063 7.04688 32.3333 5.8125 35.6615 5.8125 39.8906 5.8125 45.0365 7.63542 49.0052 11.2813 51.7969 14.9271 54.599 20.1042 56 26.8125 56 30.125 56 33.2448 55.7552 36.1719 55.2656 39.1094 54.7865 41.8125 54.0573 44.2813 53.0781Z" id="DejaVuSans-115" stroke-linecap="butt" stroke-linejoin="round"/><path d="M56.2031 29.5938 56.2031 25.2031 14.8906 25.2031C15.2865 19.0156 17.151 14.3021 20.4844 11.0625 23.8177 7.82292 28.4635 6.20313 34.4219 6.20313 37.8698 6.20313 41.2135 6.625 44.4531 7.46875 47.6927 8.3125 50.9115 9.58333 54.1094 11.2813L54.1094 2.78125C50.8802 1.41667 47.5729 0.375 44.1875-0.34375 40.8021-1.0625 37.3698-1.42188 33.8906-1.42188 25.1615-1.42188 18.25 1.11458 13.1563 6.1875 8.0625 11.2708 5.51563 18.1458 5.51563 26.8125 5.51563 35.7604 7.93229 42.8594 12.7656 48.1094 17.599 53.3698 24.1198 56 32.3281 56 39.6823 56 45.5 53.6302 49.7813 48.8906 54.0625 44.1615 56.2031 37.7292 56.2031 29.5938ZM47.2188 32.2344C47.1563 37.1406 45.7813 41.0573 43.0938 43.9844 40.4063 46.9219 36.849 48.3906 32.4219 48.3906 27.4115 48.3906 23.401 46.974 20.3906 44.1406 17.3802 41.3073 15.6458 37.3177 15.1875 32.1719Z" id="DejaVuSans-101" stroke-linecap="butt" stroke-linejoin="round"/><path d="M41.1094 46.2969C40.099 46.8802 39 47.3073 37.8125 47.5781 36.625 47.8594 35.3177 48 33.8906 48 28.8073 48 24.9063 46.349 22.1875 43.0469 19.4688 39.7448 18.1094 35 18.1094 28.8125L18.1094 0 9.07813 0 9.07813 54.6875 18.1094 54.6875 18.1094 46.1875C20.0052 49.5104 22.4635 51.974 25.4844 53.5781 28.5156 55.1927 32.1979 56 36.5313 56 37.1458 56 37.8281 55.9583 38.5781 55.875 39.3281 55.8021 40.1563 55.6823 41.0625 55.5156Z" id="DejaVuSans-114" stroke-linecap="butt" stroke-linejoin="round"/><path d="" id="DejaVuSans-32" stroke-linecap="butt" stroke-linejoin="round"/><path d="M34.2813 27.4844C27.0208 27.4844 21.9896 26.6563 19.1875 25 16.3854 23.3438 14.9844 20.5104 14.9844 16.5 14.9844 13.3125 16.0365 10.7813 18.1406 8.90625 20.2448 7.04167 23.099 6.10938 26.7031 6.10938 31.6927 6.10938 35.6927 7.875 38.7031 11.4063 41.7135 14.9375 43.2188 19.6302 43.2188 25.4844L43.2188 27.4844ZM52.2031 31.2031 52.2031 0 43.2188 0 43.2188 8.29688C41.1667 4.98438 38.6094 2.53646 35.5469 0.953125 32.4844-0.630208 28.7396-1.42188 24.3125-1.42188 18.7188-1.42188 14.2656 0.151042 10.9531 3.29688 7.65104 6.44271 6 10.651 6 15.9219 6 22.0677 8.05729 26.7031 12.1719 29.8281 16.2969 32.9531 22.4427 34.5156 30.6094 34.5156L43.2188 34.5156 43.2188 35.4063C43.2188 39.5417 41.8594 42.7396 39.1406 45 36.4219 47.2604 32.6042 48.3906 27.6875 48.3906 24.5625 48.3906 21.5156 48.0156 18.5469 47.2656 15.5885 46.5156 12.7448 45.3906 10.0156 43.8906L10.0156 52.2031C13.2969 53.474 16.4844 54.4219 19.5781 55.0469 22.6719 55.6823 25.6823 56 28.6094 56 36.526 56 42.4375 53.9479 46.3438 49.8438 50.25 45.75 52.2031 39.5365 52.2031 31.2031Z" id="DejaVuSans-97" stroke-linecap="butt" stroke-linejoin="round"/><path d="M18.3125 70.2188 18.3125 54.6875 36.8125 54.6875 36.8125 47.7031 18.3125 47.7031 18.3125 18.0156C18.3125 13.5573 18.9219 10.6927 20.1406 9.42188 21.3594 8.15104 23.8438 7.51563 27.5938 7.51563L36.8125 7.51563 36.8125 0 27.5938 0C20.6563 0 15.8698 1.29167 13.2344 3.875 10.599 6.46875 9.28125 11.1823 9.28125 18.0156L9.28125 47.7031 2.6875 47.7031 2.6875 54.6875 9.28125 54.6875 9.28125 70.2188Z" id="DejaVuSans-116" stroke-linecap="butt" stroke-linejoin="round"/><path d="M9.42188 54.6875 18.4063 54.6875 18.4063 0 9.42188 0ZM9.42188 75.9844 18.4063 75.9844 18.4063 64.5938 9.42188 64.5938Z" id="DejaVuSans-105" stroke-linecap="butt" stroke-linejoin="round"/><path d="M54.8906 33.0156 54.8906 0 45.9063 0 45.9063 32.7188C45.9063 37.8958 44.8958 41.7656 42.875 44.3281 40.8542 46.901 37.8281 48.1875 33.7969 48.1875 28.9427 48.1875 25.1146 46.6406 22.3125 43.5469 19.5104 40.4635 18.1094 36.25 18.1094 30.9063L18.1094 0 9.07813 0 9.07813 54.6875 18.1094 54.6875 18.1094 46.1875C20.2656 49.4792 22.7969 51.9375 25.7031 53.5625 28.6198 55.1875 31.9844 56 35.7969 56 42.0781 56 46.8281 54.0573 50.0469 50.1719 53.276 46.2865 54.8906 40.5677 54.8906 33.0156Z" id="DejaVuSans-110" stroke-linecap="butt" stroke-linejoin="round"/><path d="M45.4063 27.9844C45.4063 34.4948 44.0625 39.5365 41.375 43.1094 38.6979 46.6927 34.9323 48.4844 30.0781 48.4844 25.2656 48.4844 21.5156 46.6927 18.8281 43.1094 16.1406 39.5365 14.7969 34.4948 14.7969 27.9844 14.7969 21.5052 16.1406 16.474 18.8281 12.8906 21.5156 9.30729 25.2656 7.51563 30.0781 7.51563 34.9323 7.51563 38.6979 9.30729 41.375 12.8906 44.0625 16.474 45.4063 21.5052 45.4063 27.9844ZM54.3906 6.78125C54.3906-2.52083 52.3229-9.44271 48.1875-13.9844 44.0625-18.526 37.7344-20.7969 29.2031-20.7969 26.0469-20.7969 23.0677-20.5625 20.2656-20.0938 17.4635-19.625 14.7448-18.901 12.1094-17.9219L12.1094-9.1875C14.7448-10.6146 17.349-11.6667 19.9219-12.3438 22.4948-13.0313 25.1146-13.375 27.7813-13.375 33.6771-13.375 38.0885-11.8385 41.0156-8.76563 43.9427-5.69271 45.4063-1.04688 45.4063 5.17188L45.4063 9.625C43.5521 6.39583 41.1771 3.98438 38.2813 2.39063 35.3854 0.796875 31.9167 0 27.875 0 21.1771 0 15.776 2.55208 11.6719 7.65625 7.56771 12.7708 5.51563 19.5469 5.51563 27.9844 5.51563 36.4427 7.56771 43.224 11.6719 48.3281 15.776 53.4427 21.1771 56 27.875 56 31.9167 56 35.3854 55.2031 38.2813 53.6094 41.1771 52.0156 43.5521 49.6094 45.4063 46.3906L45.4063 54.6875 54.3906 54.6875Z" id="DejaVuSans-103" stroke-linecap="butt" stroke-linejoin="round"/><path d="M31 75.875C26.6458 68.3958 23.4063 60.9896 21.2813 53.6563 19.1667 46.3333 18.1094 38.9115 18.1094 31.3906 18.1094 23.8802 19.1771 16.4375 21.3125 9.0625 23.4479 1.6875 26.6771-5.72917 31-13.1875L23.1875-13.1875C18.3125-5.53125 14.6615 1.98958 12.2344 9.375 9.80729 16.7604 8.59375 24.099 8.59375 31.3906 8.59375 38.651 9.79688 45.9583 12.2031 53.3125 14.6198 60.6771 18.2813 68.1979 23.1875 75.875Z" id="DejaVuSans-40" stroke-linecap="butt" stroke-linejoin="round"/><path d="M30.6094 48.3906C25.7969 48.3906 21.9896 46.5104 19.1875 42.75 16.3854 38.9896 14.9844 33.8385 14.9844 27.2969 14.9844 20.7552 16.375 15.6042 19.1563 11.8438 21.9479 8.08333 25.7656 6.20313 30.6094 6.20313 35.401 6.20313 39.1927 8.08854 41.9844 11.8594 44.7865 15.6406 46.1875 20.7865 46.1875 27.2969 46.1875 33.776 44.7865 38.9115 41.9844 42.7031 39.1927 46.4948 35.401 48.3906 30.6094 48.3906ZM30.6094 56C38.4219 56 44.5573 53.4583 49.0156 48.375 53.4844 43.3021 55.7188 36.276 55.7188 27.2969 55.7188 18.349 53.4844 11.3229 49.0156 6.21875 44.5573 1.125 38.4219-1.42188 30.6094-1.42188 22.7656-1.42188 16.6198 1.125 12.1719 6.21875 7.73438 11.3229 5.51563 18.349 5.51563 27.2969 5.51563 36.276 7.73438 43.3021 12.1719 48.375 16.6198 53.4583 22.7656 56 30.6094 56Z" id="DejaVuSans-111" stroke-linecap="butt" stroke-linejoin="round"/><path d="M52 44.1875C54.25 48.2292 56.9375 51.2083 60.0625 53.125 63.1875 55.0417 66.8646 56 71.0938 56 76.7917 56 81.1875 54.0052 84.2813 50.0156 87.375 46.0365 88.9219 40.3698 88.9219 33.0156L88.9219 0 79.8906 0 79.8906 32.7188C79.8906 37.9583 78.9583 41.8438 77.0938 44.375 75.2396 46.9167 72.4115 48.1875 68.6094 48.1875 63.9531 48.1875 60.2708 46.6406 57.5625 43.5469 54.8646 40.4635 53.5156 36.25 53.5156 30.9063L53.5156 0 44.4844 0 44.4844 32.7188C44.4844 37.9896 43.5573 41.8854 41.7031 44.4063 39.849 46.9271 36.9844 48.1875 33.1094 48.1875 28.5156 48.1875 24.8646 46.6354 22.1563 43.5313 19.4583 40.4271 18.1094 36.2188 18.1094 30.9063L18.1094 0 9.07813 0 9.07813 54.6875 18.1094 54.6875 18.1094 46.1875C20.1615 49.5417 22.6198 52.0156 25.4844 53.6094 28.349 55.2031 31.75 56 35.6875 56 39.6667 56 43.0469 54.9896 45.8281 52.9688 48.6094 50.9583 50.6667 48.0313 52 44.1875Z" id="DejaVuSans-109" stroke-linecap="butt" stroke-linejoin="round"/><path d="M9.42188 75.9844 18.4063 75.9844 18.4063 0 9.42188 0Z" id="DejaVuSans-108" stroke-linecap="butt" stroke-linejoin="round"/><path d="M5.51563 54.6875 48.1875 54.6875 48.1875 46.4844 14.4063 7.17188 48.1875 7.17188 48.1875 0 4.29688 0 4.29688 8.20313 38.0938 47.5156 5.51563 47.5156Z" id="DejaVuSans-122" stroke-linecap="butt" stroke-linejoin="round"/><path d="M45.4063 46.3906 45.4063 75.9844 54.3906 75.9844 54.3906 0 45.4063 0 45.4063 8.20313C43.5208 4.95313 41.1354 2.53646 38.25 0.953125 35.375-0.630208 31.9167-1.42188 27.875-1.42188 21.2708-1.42188 15.8906 1.21354 11.7344 6.48438 7.58854 11.7656 5.51563 18.7031 5.51563 27.2969 5.51563 35.8906 7.58854 42.8229 11.7344 48.0938 15.8906 53.3646 21.2708 56 27.875 56 31.9167 56 35.375 55.2083 38.25 53.625 41.1354 52.0521 43.5208 49.6406 45.4063 46.3906ZM14.7969 27.2969C14.7969 20.6927 16.1563 15.5104 18.875 11.75 21.5938 7.98958 25.3281 6.10938 30.0781 6.10938 34.8281 6.10938 38.5677 7.98958 41.2969 11.75 44.0365 15.5104 45.4063 20.6927 45.4063 27.2969 45.4063 33.901 44.0365 39.0833 41.2969 42.8438 38.5677 46.6042 34.8281 48.4844 30.0781 48.4844 25.3281 48.4844 21.5938 46.6042 18.875 42.8438 16.1563 39.0833 14.7969 33.901 14.7969 27.2969Z" id="DejaVuSans-100" stroke-linecap="butt" stroke-linejoin="round"/><path d="M8.59375 75.9844 29.2969 75.9844 29.2969 69 17.5781 69 17.5781-6.20313 29.2969-6.20313 29.2969-13.1875 8.59375-13.1875Z" id="DejaVuSans-91" stroke-linecap="butt" stroke-linejoin="round"/><path d="M11.7188 51.7031 22.0156 51.7031 22.0156 39.3125 11.7188 39.3125ZM11.7188 12.4063 22.0156 12.4063 22.0156 4 14.0156-11.625 7.71875-11.625 11.7188 4Z" id="DejaVuSans-59" stroke-linecap="butt" stroke-linejoin="round"/><path d="M30.4219 75.9844 30.4219-13.1875 9.71875-13.1875 9.71875-6.20313 21.3906-6.20313 21.3906 69 9.71875 69 9.71875 75.9844Z" id="DejaVuSans-93" stroke-linecap="butt" stroke-linejoin="round"/></defs><g stroke-linecap="butt" stroke-linejoin="round" transform="matrix(0.1 0 0 -0.1 142.537 278.527)"><use width="100%" height="100%" xlink:href="#DejaVuSans-117" stroke-linecap="butt" stroke-linejoin="round"></use><use x="63.3789" width="100%" height="100%" xlink:href="#DejaVuSans-115" stroke-linecap="butt" stroke-linejoin="round"></use><use x="115.479" width="100%" height="100%" xlink:href="#DejaVuSans-101" stroke-linecap="butt" stroke-linejoin="round"></use><use x="177.002" width="100%" height="100%" xlink:href="#DejaVuSans-114" stroke-linecap="butt" stroke-linejoin="round"></use><use x="218.115" width="100%" height="100%" xlink:href="#DejaVuSans-32" stroke-linecap="butt" stroke-linejoin="round"></use><use x="249.902" width="100%" height="100%" xlink:href="#DejaVuSans-114" stroke-linecap="butt" stroke-linejoin="round"></use><use x="291.016" width="100%" height="100%" xlink:href="#DejaVuSans-97" stroke-linecap="butt" stroke-linejoin="round"></use><use x="352.295" width="100%" height="100%" xlink:href="#DejaVuSans-116" stroke-linecap="butt" stroke-linejoin="round"></use><use x="391.504" width="100%" height="100%" xlink:href="#DejaVuSans-105" stroke-linecap="butt" stroke-linejoin="round"></use><use x="419.287" width="100%" height="100%" xlink:href="#DejaVuSans-110" stroke-linecap="butt" stroke-linejoin="round"></use><use x="482.666" width="100%" height="100%" xlink:href="#DejaVuSans-103" stroke-linecap="butt" stroke-linejoin="round"></use><use x="546.143" width="100%" height="100%" xlink:href="#DejaVuSans-32" stroke-linecap="butt" stroke-linejoin="round"></use><use x="577.93" width="100%" height="100%" xlink:href="#DejaVuSans-40" stroke-linecap="butt" stroke-linejoin="round"></use><use x="616.943" width="100%" height="100%" xlink:href="#DejaVuSans-110" stroke-linecap="butt" stroke-linejoin="round"></use><use x="680.322" width="100%" height="100%" xlink:href="#DejaVuSans-111" stroke-linecap="butt" stroke-linejoin="round"></use><use x="741.504" width="100%" height="100%" xlink:href="#DejaVuSans-114" stroke-linecap="butt" stroke-linejoin="round"></use><use x="782.602" width="100%" height="100%" xlink:href="#DejaVuSans-109" stroke-linecap="butt" stroke-linejoin="round"></use><use x="880.014" width="100%" height="100%" xlink:href="#DejaVuSans-97" stroke-linecap="butt" stroke-linejoin="round"></use><use x="941.293" width="100%" height="100%" xlink:href="#DejaVuSans-108" stroke-linecap="butt" stroke-linejoin="round"></use><use x="969.076" width="100%" height="100%" xlink:href="#DejaVuSans-105" stroke-linecap="butt" stroke-linejoin="round"></use><use x="996.859" width="100%" height="100%" xlink:href="#DejaVuSans-122" stroke-linecap="butt" stroke-linejoin="round"></use><use x="1049.35" width="100%" height="100%" xlink:href="#DejaVuSans-101" stroke-linecap="butt" stroke-linejoin="round"></use><use x="1110.87" width="100%" height="100%" xlink:href="#DejaVuSans-100" stroke-linecap="butt" stroke-linejoin="round"></use><use x="1174.35" width="100%" height="100%" xlink:href="#DejaVuSans-32" stroke-linecap="butt" stroke-linejoin="round"></use><use x="1206.14" width="100%" height="100%" xlink:href="#DejaVuSans-116" stroke-linecap="butt" stroke-linejoin="round"></use><use x="1245.35" width="100%" height="100%" xlink:href="#DejaVuSans-111" stroke-linecap="butt" stroke-linejoin="round"></use><use x="1306.53" width="100%" height="100%" xlink:href="#DejaVuSans-32" stroke-linecap="butt" stroke-linejoin="round"></use><use x="1338.31" width="100%" height="100%" xlink:href="#DejaVuSans-91" stroke-linecap="butt" stroke-linejoin="round"></use><use x="1377.33" width="100%" height="100%" xlink:href="#DejaVuSans-48" stroke-linecap="butt" stroke-linejoin="round"></use><use x="1440.95" width="100%" height="100%" xlink:href="#DejaVuSans-59" stroke-linecap="butt" stroke-linejoin="round"></use><use x="1474.64" width="100%" height="100%" xlink:href="#DejaVuSans-49" stroke-linecap="butt" stroke-linejoin="round"></use><use x="1538.27" width="100%" height="100%" xlink:href="#DejaVuSans-93" stroke-linecap="butt" stroke-linejoin="round"></use></g></g></g><g id="matplotlib.axis_2" stroke-linecap="butt" stroke-linejoin="round"><g id="ytick_1" stroke-linecap="butt" stroke-linejoin="round"><g id="line2d_13" stroke-linecap="butt" stroke-linejoin="round"><path d="M54 240.435 388.8 240.435" stroke="#B0B0B0" stroke-width="0.8" stroke-linecap="square" stroke-linejoin="round" fill="none" clip-path="url(#p602e346e5c)"/></g><g id="line2d_14" stroke-linecap="butt" stroke-linejoin="round"><defs stroke-linecap="butt" stroke-linejoin="round"><path d="M0 0-3.5 0" id="m57a23920df" stroke="#000000" stroke-width="0.8" stroke-linecap="butt" stroke-linejoin="round"/></defs><g stroke-linecap="butt" stroke-linejoin="round"><use x="54" y="240.435" width="100%" height="100%" xlink:href="#m57a23920df" stroke="#000000" stroke-width="0.8" stroke-linecap="butt" stroke-linejoin="round"></use></g></g><g id="text_8" stroke-linecap="butt" stroke-linejoin="round"><g stroke-linecap="butt" stroke-linejoin="round" transform="matrix(0.1 0 0 -0.1 31.0969 244.234)"><use width="100%" height="100%" xlink:href="#DejaVuSans-48" stroke-linecap="butt" stroke-linejoin="round"></use><use x="63.623" width="100%" height="100%" xlink:href="#DejaVuSans-46" stroke-linecap="butt" stroke-linejoin="round"></use><use x="95.4102" width="100%" height="100%" xlink:href="#DejaVuSans-48" stroke-linecap="butt" stroke-linejoin="round"></use></g></g></g><g id="ytick_2" stroke-linecap="butt" stroke-linejoin="round"><g id="line2d_15" stroke-linecap="butt" stroke-linejoin="round"><path d="M54 201.175 388.8 201.175" stroke="#B0B0B0" stroke-width="0.8" stroke-linecap="square" stroke-linejoin="round" fill="none" clip-path="url(#p602e346e5c)"/></g><g id="line2d_16" stroke-linecap="butt" stroke-linejoin="round"><g stroke-linecap="butt" stroke-linejoin="round"><use x="54" y="201.175" width="100%" height="100%" xlink:href="#m57a23920df" stroke="#000000" stroke-width="0.8" stroke-linecap="butt" stroke-linejoin="round"></use></g></g><g id="text_9" stroke-linecap="butt" stroke-linejoin="round"><g stroke-linecap="butt" stroke-linejoin="round" transform="matrix(0.1 0 0 -0.1 31.0969 204.974)"><use width="100%" height="100%" xlink:href="#DejaVuSans-48" stroke-linecap="butt" stroke-linejoin="round"></use><use x="63.623" width="100%" height="100%" xlink:href="#DejaVuSans-46" stroke-linecap="butt" stroke-linejoin="round"></use><use x="95.4102" width="100%" height="100%" xlink:href="#DejaVuSans-50" stroke-linecap="butt" stroke-linejoin="round"></use></g></g></g><g id="ytick_3" stroke-linecap="butt" stroke-linejoin="round"><g id="line2d_17" stroke-linecap="butt" stroke-linejoin="round"><path d="M54 161.915 388.8 161.915" stroke="#B0B0B0" stroke-width="0.8" stroke-linecap="square" stroke-linejoin="round" fill="none" clip-path="url(#p602e346e5c)"/></g><g id="line2d_18" stroke-linecap="butt" stroke-linejoin="round"><g stroke-linecap="butt" stroke-linejoin="round"><use x="54" y="161.915" width="100%" height="100%" xlink:href="#m57a23920df" stroke="#000000" stroke-width="0.8" stroke-linecap="butt" stroke-linejoin="round"></use></g></g><g id="text_10" stroke-linecap="butt" stroke-linejoin="round"><g stroke-linecap="butt" stroke-linejoin="round" transform="matrix(0.1 0 0 -0.1 31.0969 165.714)"><use width="100%" height="100%" xlink:href="#DejaVuSans-48" stroke-linecap="butt" stroke-linejoin="round"></use><use x="63.623" width="100%" height="100%" xlink:href="#DejaVuSans-46" stroke-linecap="butt" stroke-linejoin="round"></use><use x="95.4102" width="100%" height="100%" xlink:href="#DejaVuSans-52" stroke-linecap="butt" stroke-linejoin="round"></use></g></g></g><g id="ytick_4" stroke-linecap="butt" stroke-linejoin="round"><g id="line2d_19" stroke-linecap="butt" stroke-linejoin="round"><path d="M54 122.655 388.8 122.655" stroke="#B0B0B0" stroke-width="0.8" stroke-linecap="square" stroke-linejoin="round" fill="none" clip-path="url(#p602e346e5c)"/></g><g id="line2d_20" stroke-linecap="butt" stroke-linejoin="round"><g stroke-linecap="butt" stroke-linejoin="round"><use x="54" y="122.655" width="100%" height="100%" xlink:href="#m57a23920df" stroke="#000000" stroke-width="0.8" stroke-linecap="butt" stroke-linejoin="round"></use></g></g><g id="text_11" stroke-linecap="butt" stroke-linejoin="round"><g stroke-linecap="butt" stroke-linejoin="round" transform="matrix(0.1 0 0 -0.1 31.0969 126.454)"><use width="100%" height="100%" xlink:href="#DejaVuSans-48" stroke-linecap="butt" stroke-linejoin="round"></use><use x="63.623" width="100%" height="100%" xlink:href="#DejaVuSans-46" stroke-linecap="butt" stroke-linejoin="round"></use><use x="95.4102" width="100%" height="100%" xlink:href="#DejaVuSans-54" stroke-linecap="butt" stroke-linejoin="round"></use></g></g></g><g id="ytick_5" stroke-linecap="butt" stroke-linejoin="round"><g id="line2d_21" stroke-linecap="butt" stroke-linejoin="round"><path d="M54 83.395 388.8 83.395" stroke="#B0B0B0" stroke-width="0.8" stroke-linecap="square" stroke-linejoin="round" fill="none" clip-path="url(#p602e346e5c)"/></g><g id="line2d_22" stroke-linecap="butt" stroke-linejoin="round"><g stroke-linecap="butt" stroke-linejoin="round"><use x="54" y="83.395" width="100%" height="100%" xlink:href="#m57a23920df" stroke="#000000" stroke-width="0.8" stroke-linecap="butt" stroke-linejoin="round"></use></g></g><g id="text_12" stroke-linecap="butt" stroke-linejoin="round"><g stroke-linecap="butt" stroke-linejoin="round" transform="matrix(0.1 0 0 -0.1 31.0969 87.1942)"><use width="100%" height="100%" xlink:href="#DejaVuSans-48" stroke-linecap="butt" stroke-linejoin="round"></use><use x="63.623" width="100%" height="100%" xlink:href="#DejaVuSans-46" stroke-linecap="butt" stroke-linejoin="round"></use><use x="95.4102" width="100%" height="100%" xlink:href="#DejaVuSans-56" stroke-linecap="butt" stroke-linejoin="round"></use></g></g></g><g id="ytick_6" stroke-linecap="butt" stroke-linejoin="round"><g id="line2d_23" stroke-linecap="butt" stroke-linejoin="round"><path d="M54 44.135 388.8 44.135" stroke="#B0B0B0" stroke-width="0.8" stroke-linecap="square" stroke-linejoin="round" fill="none" clip-path="url(#p602e346e5c)"/></g><g id="line2d_24" stroke-linecap="butt" stroke-linejoin="round"><g stroke-linecap="butt" stroke-linejoin="round"><use x="54" y="44.135" width="100%" height="100%" xlink:href="#m57a23920df" stroke="#000000" stroke-width="0.8" stroke-linecap="butt" stroke-linejoin="round"></use></g></g><g id="text_13" stroke-linecap="butt" stroke-linejoin="round"><g stroke-linecap="butt" stroke-linejoin="round" transform="matrix(0.1 0 0 -0.1 31.0969 47.9342)"><use width="100%" height="100%" xlink:href="#DejaVuSans-49" stroke-linecap="butt" stroke-linejoin="round"></use><use x="63.623" width="100%" height="100%" xlink:href="#DejaVuSans-46" stroke-linecap="butt" stroke-linejoin="round"></use><use x="95.4102" width="100%" height="100%" xlink:href="#DejaVuSans-48" stroke-linecap="butt" stroke-linejoin="round"></use></g></g></g><g id="text_14" stroke-linecap="butt" stroke-linejoin="round"><defs stroke-linecap="butt" stroke-linejoin="round"><path d="M64.4063 67.2813 64.4063 56.8906C61.0833 59.9844 57.5417 62.2917 53.7813 63.8125 50.0208 65.3438 46.026 66.1094 41.7969 66.1094 33.4635 66.1094 27.0833 63.5625 22.6563 58.4688 18.2292 53.375 16.0156 46.0104 16.0156 36.375 16.0156 26.7708 18.2292 19.4219 22.6563 14.3281 27.0833 9.23438 33.4635 6.6875 41.7969 6.6875 46.026 6.6875 50.0208 7.45313 53.7813 8.98438 57.5417 10.5156 61.0833 12.8281 64.4063 15.9219L64.4063 5.60938C60.9583 3.26563 57.3021 1.50521 53.4375 0.328125 49.5833-0.838542 45.5104-1.42188 41.2188-1.42188 30.1771-1.42188 21.4792 1.95313 15.125 8.70313 8.78125 15.4635 5.60938 24.6875 5.60938 36.375 5.60938 48.0938 8.78125 57.3281 15.125 64.0781 21.4792 70.8385 30.1771 74.2188 41.2188 74.2188 45.5729 74.2188 49.6771 73.6406 53.5313 72.4844 57.3958 71.3281 61.0208 69.5938 64.4063 67.2813Z" id="DejaVuSans-67" stroke-linecap="butt" stroke-linejoin="round"/><path d="M19.6719 64.7969 19.6719 8.10938 31.5938 8.10938C41.6563 8.10938 49.0208 10.3854 53.6875 14.9375 58.3542 19.5 60.6875 26.6979 60.6875 36.5313 60.6875 46.2917 58.3542 53.4427 53.6875 57.9844 49.0208 62.526 41.6563 64.7969 31.5938 64.7969ZM9.8125 72.9063 30.0781 72.9063C44.2031 72.9063 54.5677 69.9688 61.1719 64.0938 67.7865 58.2188 71.0938 49.0313 71.0938 36.5313 71.0938 23.9583 67.7708 14.724 61.125 8.82813 54.4896 2.94271 44.1406 0 30.0781 0L9.8125 0Z" id="DejaVuSans-68" stroke-linecap="butt" stroke-linejoin="round"/><path d="M9.8125 72.9063 51.7031 72.9063 51.7031 64.5938 19.6719 64.5938 19.6719 43.1094 48.5781 43.1094 48.5781 34.8125 19.6719 34.8125 19.6719 0 9.8125 0Z" id="DejaVuSans-70" stroke-linecap="butt" stroke-linejoin="round"/></defs><g stroke-linecap="butt" stroke-linejoin="round" transform="matrix(6.12323e-18 -0.1 -0.1 -6.12323e-18 25.0172 152.502)"><use width="100%" height="100%" xlink:href="#DejaVuSans-67" stroke-linecap="butt" stroke-linejoin="round"></use><use x="69.8242" width="100%" height="100%" xlink:href="#DejaVuSans-68" stroke-linecap="butt" stroke-linejoin="round"></use><use x="146.826" width="100%" height="100%" xlink:href="#DejaVuSans-70" stroke-linecap="butt" stroke-linejoin="round"></use></g></g></g><g id="line2d_25" stroke-linecap="butt" stroke-linejoin="round"><path d="M69.2182 240.435 72.2618 210.401 75.3055 197.438 78.3491 187.509 81.3927 179.195 84.4364 171.936 87.48 165.441 90.5236 159.537 93.5673 154.109 96.6109 149.077 99.6545 144.38 102.698 139.975 105.742 135.825 108.785 131.903 111.829 128.185 114.873 124.653 117.916 121.29 120.96 118.082 124.004 115.018 127.047 112.086 130.091 109.279 133.135 106.587 136.178 104.005 139.222 101.525 142.265 99.1416 145.309 96.85 148.353 94.6454 151.396 92.5234 154.44 90.4802 157.484 88.5121 160.527 86.6157 163.571 84.7881 166.615 83.0263 169.658 81.3278 172.702 79.69 175.745 78.1106 178.789 76.5874 181.833 75.1185 184.876 73.7019 187.92 72.3357 190.964 71.0184 194.007 69.7482 197.051 68.5237 200.095 67.3433 203.138 66.2057 206.182 65.1096 209.225 64.0537 212.269 63.0368 215.313 62.0577 218.356 61.1155 221.4 60.2089 224.444 59.3369 227.487 58.4987 230.531 57.6933 233.575 56.9197 236.618 56.177 239.662 55.4645 242.705 54.7813 245.749 54.1267 248.793 53.4997 251.836 52.8998 254.88 52.3262 257.924 51.7781 260.967 51.2549 264.011 50.756 267.055 50.2806 270.098 49.8281 273.142 49.398 276.185 48.9896 279.229 48.6023 282.273 48.2355 285.316 47.8887 288.36 47.5613 291.404 47.2527 294.447 46.9624 297.491 46.6899 300.535 46.4346 303.578 46.1961 306.622 45.9737 309.665 45.767 312.709 45.5755 315.753 45.3987 318.796 45.236 321.84 45.087 324.884 44.9512 327.927 44.828 330.971 44.717 334.015 44.6176 337.058 44.5294 340.102 44.4518 343.145 44.3843 346.189 44.3264 349.233 44.2775 352.276 44.237 355.32 44.2044 358.364 44.179 361.407 44.1603 364.451 44.1474 367.495 44.1395 370.538 44.1358 373.582 44.135" stroke="#1F77B4" stroke-width="1.5" stroke-linecap="square" stroke-linejoin="round" fill="none" clip-path="url(#p602e346e5c)"/></g><g id="line2d_26" stroke-linecap="butt" stroke-linejoin="round"><path d="M69.2182 240.435 72.2618 240.337 75.3055 240.112 78.3491 239.786 81.3927 239.371 84.4364 238.875 87.48 238.302 90.5236 237.657 93.5673 236.944 96.6109 236.165 99.6545 235.324 102.698 234.421 105.742 233.461 108.785 232.443 111.829 231.371 114.873 230.245 117.916 229.068 120.96 227.839 124.004 226.562 127.047 225.236 130.091 223.864 133.135 222.445 136.178 220.982 139.222 219.475 142.265 217.926 145.309 216.335 148.353 214.703 151.396 213.031 154.44 211.319 157.484 209.57 160.527 207.784 163.571 205.96 166.615 204.101 169.658 202.208 172.702 200.28 175.745 198.318 178.789 196.324 181.833 194.299 184.876 192.242 187.92 190.154 190.964 188.038 194.007 185.892 197.051 183.718 200.095 181.517 203.138 179.289 206.182 177.035 209.225 174.756 212.269 172.453 215.313 170.126 218.356 167.776 221.4 165.403 224.444 163.01 227.487 160.595 230.531 158.161 233.575 155.708 236.618 153.236 239.662 150.747 242.705 148.24 245.749 145.719 248.793 143.182 251.836 140.63 254.88 138.066 257.924 135.489 260.967 132.9 264.011 130.301 267.055 127.693 270.098 125.076 273.142 122.451 276.185 119.819 279.229 117.183 282.273 114.541 285.316 111.897 288.36 109.251 291.404 106.604 294.447 103.958 297.491 101.314 300.535 98.6733 303.578 96.0378 306.622 93.409 309.665 90.7886 312.709 88.1785 315.753 85.5806 318.796 82.997 321.84 80.4301 324.884 77.8821 327.927 75.3559 330.971 72.8544 334.015 70.3808 337.058 67.9388 340.102 65.5324 343.145 63.1663 346.189 60.8459 349.233 58.5774 352.276 56.3684 355.32 54.2281 358.364 52.1683 361.407 50.2044 364.451 48.3583 367.495 46.6639 370.538 45.1843 373.582 44.135" stroke="#FF7F0E" stroke-width="1.5" stroke-linecap="square" stroke-linejoin="round" fill="none" clip-path="url(#p602e346e5c)"/></g><g id="line2d_27" stroke-linecap="butt" stroke-linejoin="round"><path d="M69.2182 240.435 72.2618 240.434 75.3055 240.428 78.3491 240.415 81.3927 240.396 84.4364 240.367 87.48 240.33 90.5236 240.282 93.5673 240.224 96.6109 240.154 99.6545 240.072 102.698 239.978 105.742 239.87 108.785 239.748 111.829 239.612 114.873 239.46 117.916 239.293 120.96 239.11 124.004 238.911 127.047 238.694 130.091 238.459 133.135 238.206 136.178 237.934 139.222 237.643 142.265 237.332 145.309 237 148.353 236.648 151.396 236.274 154.44 235.878 157.484 235.459 160.527 235.017 163.571 234.551 166.615 234.061 169.658 233.546 172.702 233.006 175.745 232.439 178.789 231.846 181.833 231.225 184.876 230.576 187.92 229.899 190.964 229.192 194.007 228.455 197.051 227.687 200.095 226.888 203.138 226.056 206.182 225.192 209.225 224.293 212.269 223.36 215.313 222.391 218.356 221.387 221.4 220.344 224.444 219.264 227.487 218.144 230.531 216.984 233.575 215.783 236.618 214.54 239.662 213.253 242.705 211.922 245.749 210.545 248.793 209.12 251.836 207.647 254.88 206.124 257.924 204.55 260.967 202.923 264.011 201.241 267.055 199.503 270.098 197.706 273.142 195.849 276.185 193.93 279.229 191.946 282.273 189.896 285.316 187.776 288.36 185.583 291.404 183.315 294.447 180.969 297.491 178.541 300.535 176.028 303.578 173.424 306.622 170.726 309.665 167.929 312.709 165.028 315.753 162.015 318.796 158.884 321.84 155.628 324.884 152.238 327.927 148.703 330.971 145.013 334.015 141.153 337.058 137.108 340.102 132.858 343.145 128.381 346.189 123.647 349.233 118.621 352.276 113.256 355.32 107.487 358.364 101.226 361.407 94.3383 364.451 86.6039 367.495 77.6094 370.538 66.3366 373.582 44.135" stroke="#2CA02C" stroke-width="1.5" stroke-linecap="square" stroke-linejoin="round" fill="none" clip-path="url(#p602e346e5c)"/></g><g id="patch_3" stroke-linecap="butt" stroke-linejoin="round"><path d="M54 250.25 54 34.32" stroke="#000000" stroke-width="0.8" stroke-linecap="square" stroke-linejoin="miter" fill="none"/></g><g id="patch_4" stroke-linecap="butt" stroke-linejoin="round"><path d="M388.8 250.25 388.8 34.32" stroke="#000000" stroke-width="0.8" stroke-linecap="square" stroke-linejoin="miter" fill="none"/></g><g id="patch_5" stroke-linecap="butt" stroke-linejoin="round"><path d="M54 250.25 388.8 250.25" stroke="#000000" stroke-width="0.8" stroke-linecap="square" stroke-linejoin="miter" fill="none"/></g><g id="patch_6" stroke-linecap="butt" stroke-linejoin="round"><path d="M54 34.32 388.8 34.32" stroke="#000000" stroke-width="0.8" stroke-linecap="square" stroke-linejoin="miter" fill="none"/></g><g id="legend_1" stroke-linecap="butt" stroke-linejoin="round"><g id="patch_7" stroke-linecap="butt" stroke-linejoin="round"><path d="M61 101.033 108.903 101.033C110.236 101.033 110.903 100.366 110.903 99.0325L110.903 41.32C110.903 39.9867 110.236 39.32 108.903 39.32L61 39.32C59.6667 39.32 59 39.9867 59 41.32L59 99.0325C59 100.366 59.6667 101.033 61 101.033Z" stroke="#CCCCCC" stroke-linecap="butt" stroke-linejoin="miter" fill="#FFFFFF" opacity="0.8"/></g><g id="text_15" stroke-linecap="butt" stroke-linejoin="round"><defs stroke-linecap="butt" stroke-linejoin="round"><path d="M9.8125 72.9063 24.5156 72.9063 43.1094 23.2969 61.8125 72.9063 76.5156 72.9063 76.5156 0 66.8906 0 66.8906 64.0156 48.0938 14.0156 38.1875 14.0156 19.3906 64.0156 19.3906 0 9.8125 0Z" id="DejaVuSans-77" stroke-linecap="butt" stroke-linejoin="round"/><path d="M39.4063 66.2188C32.2396 66.2188 26.5469 63.5469 22.3281 58.2031 18.1198 52.8698 16.0156 45.5938 16.0156 36.375 16.0156 27.1979 18.1198 19.9375 22.3281 14.5938 26.5469 9.26042 32.2396 6.59375 39.4063 6.59375 46.5625 6.59375 52.2344 9.26042 56.4219 14.5938 60.6094 19.9375 62.7031 27.1979 62.7031 36.375 62.7031 45.5938 60.6094 52.8698 56.4219 58.2031 52.2344 63.5469 46.5625 66.2188 39.4063 66.2188ZM39.4063 74.2188C49.625 74.2188 57.7917 70.7917 63.9063 63.9375 70.0313 57.0833 73.0938 47.8958 73.0938 36.375 73.0938 24.8854 70.0313 15.7135 63.9063 8.85938 57.7917 2.00521 49.625-1.42188 39.4063-1.42188 29.1563-1.42188 20.9583 1.99479 14.8125 8.82813 8.67708 15.6719 5.60938 24.8542 5.60938 36.375 5.60938 47.8958 8.67708 57.0833 14.8125 63.9375 20.9583 70.7917 29.1563 74.2188 39.4063 74.2188Z" id="DejaVuSans-79" stroke-linecap="butt" stroke-linejoin="round"/><path d="M53.5156 70.5156 53.5156 60.8906C49.776 62.6823 46.2448 64.0156 42.9219 64.8906 39.599 65.776 36.3906 66.2188 33.2969 66.2188 27.9323 66.2188 23.7917 65.1771 20.875 63.0938 17.9583 61.0104 16.5 58.0469 16.5 54.2031 16.5 50.974 17.4688 48.5365 19.4063 46.8906 21.3438 45.2552 25.0156 43.9323 30.4219 42.9219L36.375 41.7031C43.7292 40.2969 49.1563 37.8281 52.6563 34.2969 56.1563 30.7656 57.9063 26.0417 57.9063 20.125 57.9063 13.0521 55.5365 7.69271 50.7969 4.04688 46.0677 0.401042 39.1302-1.42188 29.9844-1.42188 26.5365-1.42188 22.8646-1.03125 18.9688-0.25 15.0833 0.53125 11.0573 1.6875 6.89063 3.21875L6.89063 13.375C10.8906 11.1354 14.8125 9.44271 18.6563 8.29688 22.5 7.16146 26.276 6.59375 29.9844 6.59375 35.6094 6.59375 39.9531 7.69792 43.0156 9.90625 46.0781 12.125 47.6094 15.2865 47.6094 19.3906 47.6094 22.9635 46.5104 25.7604 44.3125 27.7813 42.1146 29.8021 38.5104 31.3177 33.5 32.3281L27.4844 33.5C20.1302 34.9583 14.8073 37.25 11.5156 40.375 8.23438 43.5 6.59375 47.849 6.59375 53.4219 6.59375 59.8698 8.86458 64.9479 13.4063 68.6563 17.9479 72.3646 24.2031 74.2188 32.1719 74.2188 35.599 74.2188 39.0833 73.9063 42.625 73.2813 46.1771 72.6667 49.8073 71.7448 53.5156 70.5156Z" id="DejaVuSans-83" stroke-linecap="butt" stroke-linejoin="round"/></defs><g stroke-linecap="butt" stroke-linejoin="round" transform="matrix(0.1 0 0 -0.1 73.5273 50.9184)"><use width="100%" height="100%" xlink:href="#DejaVuSans-77" stroke-linecap="butt" stroke-linejoin="round"></use><use x="86.2793" width="100%" height="100%" xlink:href="#DejaVuSans-79" stroke-linecap="butt" stroke-linejoin="round"></use><use x="164.99" width="100%" height="100%" xlink:href="#DejaVuSans-83" stroke-linecap="butt" stroke-linejoin="round"></use></g></g><g id="line2d_28" stroke-linecap="butt" stroke-linejoin="round"><path d="M63 62.0966 83 62.0966" stroke="#1F77B4" stroke-width="1.5" stroke-linecap="square" stroke-linejoin="round" fill="none"/></g><g id="line2d_29" stroke-linecap="butt" stroke-linejoin="round"></g><g id="text_16" stroke-linecap="butt" stroke-linejoin="round"><defs stroke-linecap="butt" stroke-linejoin="round"><path d="M8.20313 72.9063 55.0781 72.9063 55.0781 68.7031 28.6094 0 18.3125 0 43.2188 64.5938 8.20313 64.5938Z" id="DejaVuSans-55" stroke-linecap="butt" stroke-linejoin="round"/></defs><g stroke-linecap="butt" stroke-linejoin="round" transform="matrix(0.1 0 0 -0.1 91 65.5966)"><use width="100%" height="100%" xlink:href="#DejaVuSans-49" stroke-linecap="butt" stroke-linejoin="round"></use><use x="63.623" width="100%" height="100%" xlink:href="#DejaVuSans-46" stroke-linecap="butt" stroke-linejoin="round"></use><use x="95.4102" width="100%" height="100%" xlink:href="#DejaVuSans-55" stroke-linecap="butt" stroke-linejoin="round"></use></g></g><g id="line2d_30" stroke-linecap="butt" stroke-linejoin="round"><path d="M63 76.7747 83 76.7747" stroke="#FF7F0E" stroke-width="1.5" stroke-linecap="square" stroke-linejoin="round" fill="none"/></g><g id="line2d_31" stroke-linecap="butt" stroke-linejoin="round"></g><g id="text_17" stroke-linecap="butt" stroke-linejoin="round"><defs stroke-linecap="butt" stroke-linejoin="round"><path d="M40.5781 39.3125C45.2969 38.3021 48.9792 36.1979 51.625 33 54.2813 29.8125 55.6094 25.875 55.6094 21.1875 55.6094 14 53.1354 8.43229 48.1875 4.48438 43.2396 0.546875 36.2083-1.42188 27.0938-1.42188 24.0417-1.42188 20.8958-1.11979 17.6563-0.515625 14.4167 0.0885417 11.0729 0.994792 7.625 2.20313L7.625 11.7188C10.3542 10.125 13.3438 8.92188 16.5938 8.10938 19.8542 7.29688 23.2604 6.89063 26.8125 6.89063 32.9896 6.89063 37.6979 8.10938 40.9375 10.5469 44.1771 12.9844 45.7969 16.5313 45.7969 21.1875 45.7969 25.4896 44.2917 28.849 41.2813 31.2656 38.2708 33.6927 34.0833 34.9063 28.7188 34.9063L20.2188 34.9063 20.2188 43.0156 29.1094 43.0156C33.9531 43.0156 37.6615 43.9844 40.2344 45.9219 42.8073 47.8594 44.0938 50.651 44.0938 54.2969 44.0938 58.0365 42.7656 60.9063 40.1094 62.9063 37.4635 64.9167 33.6667 65.9219 28.7188 65.9219 26.0104 65.9219 23.1094 65.625 20.0156 65.0313 16.9219 64.4479 13.5208 63.5417 9.8125 62.3125L9.8125 71.0938C13.5625 72.1354 17.0729 72.9167 20.3438 73.4375 23.6146 73.9583 26.6979 74.2188 29.5938 74.2188 37.0833 74.2188 43.0052 72.5156 47.3594 69.1094 51.724 65.7135 53.9063 61.1198 53.9063 55.3281 53.9063 51.2865 52.75 47.875 50.4375 45.0938 48.125 42.3125 44.8385 40.3854 40.5781 39.3125Z" id="DejaVuSans-51" stroke-linecap="butt" stroke-linejoin="round"/></defs><g stroke-linecap="butt" stroke-linejoin="round" transform="matrix(0.1 0 0 -0.1 91 80.2747)"><use width="100%" height="100%" xlink:href="#DejaVuSans-51" stroke-linecap="butt" stroke-linejoin="round"></use><use x="63.623" width="100%" height="100%" xlink:href="#DejaVuSans-46" stroke-linecap="butt" stroke-linejoin="round"></use><use x="95.4102" width="100%" height="100%" xlink:href="#DejaVuSans-51" stroke-linecap="butt" stroke-linejoin="round"></use></g></g><g id="line2d_32" stroke-linecap="butt" stroke-linejoin="round"><path d="M63 91.4528 83 91.4528" stroke="#2CA02C" stroke-width="1.5" stroke-linecap="square" stroke-linejoin="round" fill="none"/></g><g id="line2d_33" stroke-linecap="butt" stroke-linejoin="round"></g><g id="text_18" stroke-linecap="butt" stroke-linejoin="round"><g stroke-linecap="butt" stroke-linejoin="round" transform="matrix(0.1 0 0 -0.1 91 94.9528)"><use width="100%" height="100%" xlink:href="#DejaVuSans-52" stroke-linecap="butt" stroke-linejoin="round"></use><use x="63.623" width="100%" height="100%" xlink:href="#DejaVuSans-46" stroke-linecap="butt" stroke-linejoin="round"></use><use x="95.4102" width="100%" height="100%" xlink:href="#DejaVuSans-50" stroke-linecap="butt" stroke-linejoin="round"></use></g></g></g></g></g></svg>