<svg width="1276.48" height="1275.82" xmlns="http://www.w3.org/2000/svg" xmlns:xlink="http://www.w3.org/1999/xlink" id="svg2" overflow="hidden"><defs id="defs4"></defs><g id="g3578" display="inline" transform="translate(-1256.54 202.297)"><g id="g4597"><path d="M2442.62 1073.53C2482.56 860.378 2512.08 645.043 2526.97 428.673 2532.93 317.585 2536.9 205.8 2526.99 94.6039 2515.96 37.694 2521.43-8.92044 2498.69-87.4124 2248.02-97.4226 1987.57-125.411 1738.45-153.438 1602.21-168.481 1479.91-179.885 1338.36-202.297 1388.65-47.9869 1411.57 85.925 1407.73 357.109 1395.03 589.039 1335 822.305 1256.54 1039.98 1317.67 1027.49 1349.1 1016.89 1391.94 1011.16 1639.88 962.24 1896.33 931.091 2147.84 971.315 2250.35 991.203 2351.84 1020.56 2442.62 1073.53Z" id="path3580" stroke="none" fill="#FF0000" fill-rule="nonzero" fill-opacity="1"/><path d="M1962.92 761.069C1999.77 739.307 2037.5 718.786 2074.6 697.043 2127.44 670.385 2177.44 638.588 2226 604.867 2239.13 591.611 2281.76 574.68 2265.32 554.512 2241.9 537.93 2212.75 537.525 2186.72 526.534 2146.22 513.46 2101.17 503.385 2070.32 472.249 2038.25 442.212 2075.98 410.313 2094.19 385.512 2146.72 320.699 2202.15 257.832 2247.37 187.49 2271.09 155.88 2230.01 144.206 2205.35 147.935 2154.18 152.797 2104.28 166.576 2054.36 178.074 2032.87 182.6 1988.89 207.535 1980.91 173.398 1980.26 132.084 2002.78 91.0587 2034.12 64.4316 2058.94 41.3229 2095.34 46.1129 2125.01 33.1799 2167.29 26.3689 2209.96 20.3617 2252.79 24.9651 2289 29.8397 2329.06 34.3247 2357.56 59.4437 2390.73 81.1321 2381.12 123.835 2361.21 150.899 2325.47 218.265 2268 269.961 2222.41 330.159 2207.52 353.373 2164.87 387.184 2187.02 414.572 2230.6 444.681 2281.62 461.614 2326.47 489.801 2351.35 505.592 2386.52 523.544 2385.08 557.796 2384.88 605.156 2358.44 649.547 2319.31 675.328 2276.34 706.73 2227.17 728.32 2181.21 754.841 2112.24 789.66 2034.72 816.946 1956.46 804.946 1926.79 797.099 1938.67 765.029 1962.92 761.069Z" id="path3786" stroke="none" fill="#FFFFFF" fill-rule="nonzero" fill-opacity="1"/><path d="M1854.45 252.212C1854.77 286.159 1853.03 320.316 1857.06 353.953 1856.23 386.674 1858.31 419.506 1854.23 452.058 1854.16 484.505 1856.13 517.114 1851.88 549.354 1852.07 573.417 1853.19 597.665 1849.51 621.418 1851.54 650.253 1846.01 678.522 1844.78 707.104 1844.29 736.286 1841.27 789.178 1839.48 818.255 1831.22 822.3 1801.74 820.865 1781.47 832.092 1755.46 841.129 1727.69 845.051 1701.43 851.611 1676.15 856.524 1651.19 862.662 1625.64 865.161 1602.21 866.472 1579.48 873.429 1555.98 872.712 1541.43 874.936 1508.26 884.34 1503.88 872.196 1512.25 847.419 1515.71 820.93 1519.65 795.055 1522.72 765.37 1533.67 736.765 1534.51 706.971 1543.16 680.425 1541.95 652.058 1548.26 625.596 1549.78 598.698 1553.99 572.162 1555.88 545.128 1559.94 523.245 1556.3 499.181 1560.26 476.625 1561.69 452.507 1559.07 428.599 1557.93 404.721 1558.91 380.308 1549.41 357.004 1548.31 332.559 1571.34 326.846 1592.96 316.498 1616.37 311.657 1646.34 301.314 1676.8 293.352 1706.81 284.25 1729.18 279.271 1751.78 274.488 1773.57 267.425 1793.39 265.114 1813.72 259.233 1833.89 256.745 1840.97 256.635 1847.85 254.639 1854.45 252.212Z" id="path3800" stroke="none" fill="#FFFFFF" fill-rule="nonzero" fill-opacity="1"/><path d="M1606.16 421.831C1601.34 412.16 1596.52 402.489 1591.7 392.817 1601.85 389.556 1610.65 383.581 1621.23 381.473 1629.14 378.092 1636.91 375.112 1645.19 372.712 1652.66 372.465 1659.9 370.442 1667.14 368.176 1675.97 365.971 1684.27 364.306 1692.7 362.109 1698.45 358.821 1707.95 360.091 1711.34 357.089 1718.13 356.767 1725.31 358.352 1731.54 355.082 1739.5 356.063 1746.39 351.704 1754.32 352.623 1761.92 354.228 1768.46 350.052 1775.83 350.412 1790.79 350.412 1805.74 350.412 1820.7 350.412 1819.9 360.828 1819.09 371.243 1818.29 381.659 1806.24 381.659 1794.18 381.659 1782.13 381.659 1775 387.063 1764.19 381.201 1756.31 386.15 1746.01 384.56 1736.52 388.099 1726.56 388.287 1719.34 390.324 1711.69 392.757 1703.77 392.775 1695.48 393.912 1688.05 398.315 1679.58 399.217 1671.17 402.378 1662.21 402.978 1653.56 404.621 1647.53 407.049 1640.06 407.257 1634.49 411.815 1627.03 415.476 1618.95 417.274 1611.18 419.967 1609.53 420.644 1607.88 421.327 1606.16 421.831Z" id="path3804" stroke="none" fill="#000000" fill-rule="nonzero" fill-opacity="1"/><path d="M1603.75 522.264C1599.73 511.849 1595.71 501.434 1591.7 491.019 1600.18 487.235 1607.67 481.939 1617.01 480.287 1624.89 479.165 1632.09 475.412 1640.03 473.214 1645.61 470.973 1652.44 470.048 1658.55 467.73 1665.4 464.534 1673.2 465.206 1679.49 462.073 1688.24 459.267 1697.85 459.712 1706.29 455.875 1710.29 455.794 1723.39 453.398 1731.1 451.127 1739.53 452.211 1745.97 448.3 1754.05 448.567 1775.46 448.672 1796.88 448.585 1818.29 448.614 1817.49 459.029 1816.68 469.444 1815.88 479.859 1800.61 479.859 1785.34 479.859 1770.08 479.859 1763.91 485.49 1753.55 478.888 1747.11 484.345 1737.55 482.741 1729.04 487.186 1719.65 486.673 1710.2 488.489 1701.12 493.423 1691.28 493.126 1684.25 494.988 1676.67 495.07 1670.7 499.753 1663.97 499.768 1658.37 502.47 1652.22 504.683 1645.45 505.78 1639.07 508.972 1632.19 511.009 1624.97 511.767 1618.78 516.143 1611.65 517.807 1609.11 519.479 1606.37 520.753 1603.75 522.264Z" id="path3806" stroke="none" fill="#000000" fill-rule="nonzero" fill-opacity="1"/><path d="M1606.16 618.232C1600.54 607.817 1594.91 597.402 1589.29 586.986 1599.57 584.063 1609.82 580.125 1619.83 575.877 1629.06 573.505 1637.92 568.997 1647.47 568.767 1653.44 566.098 1660.94 565.726 1666.87 561.903 1673.94 560.107 1681.29 560.55 1688.2 558.157 1694.65 557.051 1701.57 556.823 1707.4 553.509 1717.03 553.374 1726.03 549.784 1735.92 551.337 1741.31 550.095 1745.22 544.883 1751.74 546.814 1758.66 546.814 1765.57 546.814 1772.49 546.814 1775.87 542.766 1781.81 545.196 1786.45 544.582 1797.06 544.582 1807.67 544.582 1818.29 544.582 1817.49 555.742 1816.68 566.901 1815.88 578.06 1800.61 578.06 1785.34 578.06 1770.08 578.06 1764.63 583.467 1755.2 577.316 1749.49 582.552 1739.07 581.242 1729.23 584.471 1719 584.999 1713.28 587.647 1706.58 587.021 1698.89 588.99 1692.95 592.389 1685.1 589.667 1679.2 593.977 1672.21 597.384 1663.69 596.921 1656.24 599.797 1647.66 604.274 1637.36 602.943 1628.94 607.711 1620.69 611.565 1612.4 615.377 1603.75 618.232 1604.55 618.232 1605.36 618.232 1606.16 618.232Z" id="path3808" stroke="none" fill="#000000" fill-rule="nonzero" fill-opacity="1"/><path d="M424.264 128.073C424.264 196.693 360.948 252.321 282.843 252.321 204.738 252.321 141.421 196.693 141.421 128.073 141.421 59.4519 204.738 3.82384 282.843 3.82384 360.948 3.82384 424.264 59.4519 424.264 128.073Z" id="path4590" color="#000000" stroke="none" stroke-width="1" fill="#FFFFFF" fill-rule="evenodd" fill-opacity="1" visibility="visible" display="inline" overflow="visible" transform="translate(1358.83 -12.6878)"/></g></g></svg>